<?xml version="1.0" standalone="no"?>
 <!DOCTYPE svg PUBLIC "-//W3C//DTD SVG 1.1//EN" 
 "http://www.w3.org/Graphics/SVG/1.1/DTD/svg11.dtd"> 
<svg
  xmlns:svg="http://www.w3.org/2000/svg"
  xmlns="http://www.w3.org/2000/svg"
  xmlns:xlink="http://www.w3.org/1999/xlink"
  version="1.1"
  width="67.1830mm" height="11.9126mm" viewBox="0.0000 0.0000 67.1830 11.9126">
<title>SVG Image created as rastender_Taster.svg date 2026/02/23 19:54:04 </title>
  <desc>Image generated by Eeschema-SVG </desc>
<g style="fill:#000000; fill-opacity:1.0000;stroke:#000000; stroke-opacity:1.0000;
stroke-linecap:round; stroke-linejoin:round;"
 transform="translate(0 0) scale(1 1)">
<path style="fill:none; 
stroke:#840000; stroke-width:0.1524; stroke-opacity:1; 
stroke-linecap:round; stroke-linejoin:round;fill:none"
d="M 31.3024,7.3473
30.9214,7.3473
" /> 
<path style="fill:none; 
stroke:#840000; stroke-width:0.1524; stroke-opacity:1; 
stroke-linecap:round; stroke-linejoin:round;fill:none"
d="M 31.3024,7.3473
35.8744,5.8233
" /> 
<path style="fill:none; 
stroke:#840000; stroke-width:0.1524; stroke-opacity:1; 
stroke-linecap:round; stroke-linejoin:round;fill:none"
d="M 32.9534,4.0453
34.2234,4.0453
" /> 
<path style="fill:none; 
stroke:#840000; stroke-width:0.1524; stroke-opacity:1; 
stroke-linecap:round; stroke-linejoin:round;fill:none"
d="M 33.5884,6.5853
33.5884,5.3153
33.3344,5.0613
33.5884,4.8073
33.5884,4.0453
" /> 
</g>
<g style="fill:none; 
stroke:#840000; stroke-width:0.1524; stroke-opacity:1; 
stroke-linecap:round; stroke-linejoin:round;">
<path d="M31.0484 7.3473
L28.5084 7.3473
" />
</g>
<g style="fill:none; 
stroke:#A90000; stroke-width:0.1524; stroke-opacity:1; 
stroke-linecap:round; stroke-linejoin:round;">
<text x="29.7784" y="7.0933"
textLength="1.4127" font-size="1.6933" lengthAdjust="spacingAndGlyphs"
text-anchor="middle" opacity="0" stroke-opacity="0">1</text>
<g class="stroked-text"><desc>1</desc>
<path d="M30.1413 6.9298
L29.4156 6.9298
" />
<path d="M29.7784 6.9298
L29.7784 5.6598
" />
<path d="M29.7784 5.6598
L29.6575 5.8413
" />
<path d="M29.6575 5.8413
L29.5365 5.9622
" />
<path d="M29.5365 5.9622
L29.4156 6.0227
" />
</g></g>
<g style="fill:none; 
stroke:#840000; stroke-width:0.1524; stroke-opacity:1; 
stroke-linecap:round; stroke-linejoin:round;">
<path d="M36.1284 7.3473
L38.6684 7.3473
" />
</g>
<g style="fill:none; 
stroke:#A90000; stroke-width:0.1524; stroke-opacity:1; 
stroke-linecap:round; stroke-linejoin:round;">
<text x="37.3984" y="7.0933"
textLength="1.4127" font-size="1.6933" lengthAdjust="spacingAndGlyphs"
text-anchor="middle" opacity="0" stroke-opacity="0">2</text>
<g class="stroked-text"><desc>2</desc>
<path d="M37.0356 5.7808
L37.0960 5.7203
" />
<path d="M37.0960 5.7203
L37.2170 5.6598
" />
<path d="M37.2170 5.6598
L37.5194 5.6598
" />
<path d="M37.5194 5.6598
L37.6403 5.7203
" />
<path d="M37.6403 5.7203
L37.7008 5.7808
" />
<path d="M37.7008 5.7808
L37.7613 5.9017
" />
<path d="M37.7613 5.9017
L37.7613 6.0227
" />
<path d="M37.7613 6.0227
L37.7008 6.2041
" />
<path d="M37.7008 6.2041
L36.9751 6.9298
" />
<path d="M36.9751 6.9298
L37.7613 6.9298
" />
</g></g>
<g style="fill:none; 
stroke:#006464; stroke-width:0.1524; stroke-opacity:1; 
stroke-linecap:round; stroke-linejoin:round;">
<text x="0.0000" y="-4.6990"
textLength="5.0413" font-size="1.6933" lengthAdjust="spacingAndGlyphs"
text-anchor="middle" opacity="0" stroke-opacity="0">SW?A</text>
<g class="stroked-text"><desc>SW?A</desc>
<path d="M-2.1770 -4.8149
L-1.9956 -4.7544
" />
<path d="M-1.9956 -4.7544
L-1.6932 -4.7544
" />
<path d="M-1.6932 -4.7544
L-1.5723 -4.8149
" />
<path d="M-1.5723 -4.8149
L-1.5118 -4.8753
" />
<path d="M-1.5118 -4.8753
L-1.4513 -4.9963
" />
<path d="M-1.4513 -4.9963
L-1.4513 -5.1172
" />
<path d="M-1.4513 -5.1172
L-1.5118 -5.2382
" />
<path d="M-1.5118 -5.2382
L-1.5723 -5.2987
" />
<path d="M-1.5723 -5.2987
L-1.6932 -5.3591
" />
<path d="M-1.6932 -5.3591
L-1.9351 -5.4196
" />
<path d="M-1.9351 -5.4196
L-2.0561 -5.4801
" />
<path d="M-2.0561 -5.4801
L-2.1166 -5.5406
" />
<path d="M-2.1166 -5.5406
L-2.1770 -5.6615
" />
<path d="M-2.1770 -5.6615
L-2.1770 -5.7825
" />
<path d="M-2.1770 -5.7825
L-2.1166 -5.9034
" />
<path d="M-2.1166 -5.9034
L-2.0561 -5.9639
" />
<path d="M-2.0561 -5.9639
L-1.9351 -6.0244
" />
<path d="M-1.9351 -6.0244
L-1.6328 -6.0244
" />
<path d="M-1.6328 -6.0244
L-1.4513 -5.9639
" />
<path d="M-1.0280 -6.0244
L-0.7256 -4.7544
" />
<path d="M-0.7256 -4.7544
L-0.4837 -5.6615
" />
<path d="M-0.4837 -5.6615
L-0.2418 -4.7544
" />
<path d="M-0.2418 -4.7544
L0.0605 -6.0244
" />
<path d="M0.7257 -4.8753
L0.7861 -4.8149
" />
<path d="M0.7861 -4.8149
L0.7257 -4.7544
" />
<path d="M0.7257 -4.7544
L0.6652 -4.8149
" />
<path d="M0.6652 -4.8149
L0.7257 -4.8753
" />
<path d="M0.7257 -4.8753
L0.7257 -4.7544
" />
<path d="M0.4838 -5.9639
L0.6047 -6.0244
" />
<path d="M0.6047 -6.0244
L0.9071 -6.0244
" />
<path d="M0.9071 -6.0244
L1.0280 -5.9639
" />
<path d="M1.0280 -5.9639
L1.0885 -5.8429
" />
<path d="M1.0885 -5.8429
L1.0885 -5.7220
" />
<path d="M1.0885 -5.7220
L1.0280 -5.6010
" />
<path d="M1.0280 -5.6010
L0.9676 -5.5406
" />
<path d="M0.9676 -5.5406
L0.8466 -5.4801
" />
<path d="M0.8466 -5.4801
L0.7861 -5.4196
" />
<path d="M0.7861 -5.4196
L0.7257 -5.2987
" />
<path d="M0.7257 -5.2987
L0.7257 -5.2382
" />
<path d="M1.5724 -5.1172
L2.1771 -5.1172
" />
<path d="M1.4514 -4.7544
L1.8747 -6.0244
" />
<path d="M1.8747 -6.0244
L2.2981 -4.7544
" />
</g></g> 
</svg>
