<?xml version="1.0" standalone="no"?>
 <!DOCTYPE svg PUBLIC "-//W3C//DTD SVG 1.1//EN" 
 "http://www.w3.org/Graphics/SVG/1.1/DTD/svg11.dtd"> 
<svg
  xmlns:svg="http://www.w3.org/2000/svg"
  xmlns="http://www.w3.org/2000/svg"
  xmlns:xlink="http://www.w3.org/1999/xlink"
  version="1.1"
  width="67.1830mm" height="10.6934mm" viewBox="0.0000 0.0000 67.1830 10.6934">
<title>SVG Image created as Öffnertaster-A.svg date 2026/02/23 20:39:06 </title>
  <desc>Image generated by Eeschema-SVG </desc>
<g style="fill:#000000; fill-opacity:1.0000;stroke:#000000; stroke-opacity:1.0000;
stroke-linecap:round; stroke-linejoin:round;"
 transform="translate(0 0) scale(1 1)">
<path style="fill:none; 
stroke:#840000; stroke-width:0.1524; stroke-opacity:1; 
stroke-linecap:round; stroke-linejoin:round;fill:none"
d="M 31.0484,6.2297
32.5724,6.2297
32.5724,4.4517
" /> 
<path style="fill:none; 
stroke:#840000; stroke-width:0.1524; stroke-opacity:1; 
stroke-linecap:round; stroke-linejoin:round;fill:none"
d="M 33.0804,4.1977
34.0964,4.1977
" /> 
<path style="fill:none; 
stroke:#840000; stroke-width:0.1524; stroke-opacity:1; 
stroke-linecap:round; stroke-linejoin:round;fill:none"
d="M 33.5884,5.4677
33.5884,4.1977
" /> 
<path style="fill:none; 
stroke:#840000; stroke-width:0.1524; stroke-opacity:1; 
stroke-linecap:round; stroke-linejoin:round;fill:none"
d="M 35.8744,6.2297
31.3024,4.7057
" /> 
<path style="fill:none; 
stroke:#840000; stroke-width:0.1524; stroke-opacity:1; 
stroke-linecap:round; stroke-linejoin:round;fill:none"
d="M 35.8744,6.2297
36.2554,6.2297
" /> 
</g>
<g style="fill:none; 
stroke:#840000; stroke-width:0.1524; stroke-opacity:1; 
stroke-linecap:round; stroke-linejoin:round;">
<path d="M31.0484 6.2297
L28.5084 6.2297
" />
</g>
<g style="fill:none; 
stroke:#A90000; stroke-width:0.1524; stroke-opacity:1; 
stroke-linecap:round; stroke-linejoin:round;">
<text x="29.7784" y="5.9757"
textLength="1.4127" font-size="1.6933" lengthAdjust="spacingAndGlyphs"
text-anchor="middle" opacity="0" stroke-opacity="0">1</text>
<g class="stroked-text"><desc>1</desc>
<path d="M30.1413 5.8122
L29.4156 5.8122
" />
<path d="M29.7784 5.8122
L29.7784 4.5422
" />
<path d="M29.7784 4.5422
L29.6575 4.7237
" />
<path d="M29.6575 4.7237
L29.5365 4.8446
" />
<path d="M29.5365 4.8446
L29.4156 4.9051
" />
</g></g>
<g style="fill:none; 
stroke:#840000; stroke-width:0.1524; stroke-opacity:1; 
stroke-linecap:round; stroke-linejoin:round;">
<path d="M36.1284 6.2297
L38.6684 6.2297
" />
</g>
<g style="fill:none; 
stroke:#A90000; stroke-width:0.1524; stroke-opacity:1; 
stroke-linecap:round; stroke-linejoin:round;">
<text x="37.3984" y="5.9757"
textLength="1.4127" font-size="1.6933" lengthAdjust="spacingAndGlyphs"
text-anchor="middle" opacity="0" stroke-opacity="0">2</text>
<g class="stroked-text"><desc>2</desc>
<path d="M37.0356 4.6632
L37.0960 4.6027
" />
<path d="M37.0960 4.6027
L37.2170 4.5422
" />
<path d="M37.2170 4.5422
L37.5194 4.5422
" />
<path d="M37.5194 4.5422
L37.6403 4.6027
" />
<path d="M37.6403 4.6027
L37.7008 4.6632
" />
<path d="M37.7008 4.6632
L37.7613 4.7841
" />
<path d="M37.7613 4.7841
L37.7613 4.9051
" />
<path d="M37.7613 4.9051
L37.7008 5.0865
" />
<path d="M37.7008 5.0865
L36.9751 5.8122
" />
<path d="M36.9751 5.8122
L37.7613 5.8122
" />
</g></g>
<g style="fill:none; 
stroke:#006464; stroke-width:0.1524; stroke-opacity:1; 
stroke-linecap:round; stroke-linejoin:round;">
<text x="0.0000" y="-3.6830"
textLength="5.0413" font-size="1.6933" lengthAdjust="spacingAndGlyphs"
text-anchor="middle" opacity="0" stroke-opacity="0">SW?A</text>
<g class="stroked-text"><desc>SW?A</desc>
<path d="M-2.1770 -3.7989
L-1.9956 -3.7384
" />
<path d="M-1.9956 -3.7384
L-1.6932 -3.7384
" />
<path d="M-1.6932 -3.7384
L-1.5723 -3.7989
" />
<path d="M-1.5723 -3.7989
L-1.5118 -3.8593
" />
<path d="M-1.5118 -3.8593
L-1.4513 -3.9803
" />
<path d="M-1.4513 -3.9803
L-1.4513 -4.1012
" />
<path d="M-1.4513 -4.1012
L-1.5118 -4.2222
" />
<path d="M-1.5118 -4.2222
L-1.5723 -4.2827
" />
<path d="M-1.5723 -4.2827
L-1.6932 -4.3431
" />
<path d="M-1.6932 -4.3431
L-1.9351 -4.4036
" />
<path d="M-1.9351 -4.4036
L-2.0561 -4.4641
" />
<path d="M-2.0561 -4.4641
L-2.1166 -4.5246
" />
<path d="M-2.1166 -4.5246
L-2.1770 -4.6455
" />
<path d="M-2.1770 -4.6455
L-2.1770 -4.7665
" />
<path d="M-2.1770 -4.7665
L-2.1166 -4.8874
" />
<path d="M-2.1166 -4.8874
L-2.0561 -4.9479
" />
<path d="M-2.0561 -4.9479
L-1.9351 -5.0084
" />
<path d="M-1.9351 -5.0084
L-1.6328 -5.0084
" />
<path d="M-1.6328 -5.0084
L-1.4513 -4.9479
" />
<path d="M-1.0280 -5.0084
L-0.7256 -3.7384
" />
<path d="M-0.7256 -3.7384
L-0.4837 -4.6455
" />
<path d="M-0.4837 -4.6455
L-0.2418 -3.7384
" />
<path d="M-0.2418 -3.7384
L0.0605 -5.0084
" />
<path d="M0.7257 -3.8593
L0.7861 -3.7989
" />
<path d="M0.7861 -3.7989
L0.7257 -3.7384
" />
<path d="M0.7257 -3.7384
L0.6652 -3.7989
" />
<path d="M0.6652 -3.7989
L0.7257 -3.8593
" />
<path d="M0.7257 -3.8593
L0.7257 -3.7384
" />
<path d="M0.4838 -4.9479
L0.6047 -5.0084
" />
<path d="M0.6047 -5.0084
L0.9071 -5.0084
" />
<path d="M0.9071 -5.0084
L1.0280 -4.9479
" />
<path d="M1.0280 -4.9479
L1.0885 -4.8269
" />
<path d="M1.0885 -4.8269
L1.0885 -4.7060
" />
<path d="M1.0885 -4.7060
L1.0280 -4.5850
" />
<path d="M1.0280 -4.5850
L0.9676 -4.5246
" />
<path d="M0.9676 -4.5246
L0.8466 -4.4641
" />
<path d="M0.8466 -4.4641
L0.7861 -4.4036
" />
<path d="M0.7861 -4.4036
L0.7257 -4.2827
" />
<path d="M0.7257 -4.2827
L0.7257 -4.2222
" />
<path d="M1.5724 -4.1012
L2.1771 -4.1012
" />
<path d="M1.4514 -3.7384
L1.8747 -5.0084
" />
<path d="M1.8747 -5.0084
L2.2981 -3.7384
" />
</g></g> 
</svg>
