<?xml version="1.0" standalone="no"?>
 <!DOCTYPE svg PUBLIC "-//W3C//DTD SVG 1.1//EN" 
 "http://www.w3.org/Graphics/SVG/1.1/DTD/svg11.dtd"> 
<svg
  xmlns:svg="http://www.w3.org/2000/svg"
  xmlns="http://www.w3.org/2000/svg"
  xmlns:xlink="http://www.w3.org/1999/xlink"
  version="1.1"
  width="99.9998mm" height="49.9872mm" viewBox="0.0000 0.0000 99.9998 49.9872">
<title>SVG Image created as invertVerstärker.svg date 2026/02/12 10:19:40 </title>
  <desc>Image generated by Eeschema-SVG </desc>
<g style="fill:#000000; fill-opacity:1.0000;stroke:#000000; stroke-opacity:1.0000;
stroke-linecap:round; stroke-linejoin:round;"
 transform="translate(0 0) scale(1 1)">
</g>
<g style="fill:#F5F4EF; fill-opacity:1.0000; 
stroke:#F5F4EF; stroke-width:0.0001; stroke-opacity:1; 
stroke-linecap:round; stroke-linejoin:round;">
<rect x="0.000000" y="0.000000" width="100.000000" height="50.000000" rx="0.000000" />
</g>
<g style="fill:none; 
stroke:#840000; stroke-width:0.1524; stroke-opacity:1; 
stroke-linecap:round; stroke-linejoin:round;">
<path d="M0.0000 0.0000
L100.0000 0.0000
L100.0000 50.0000
L0.0000 50.0000
L0.0000 0.0000
" />
<path d="M2.0000 2.0000
L98.0000 2.0000
L98.0000 48.0000
L2.0000 48.0000
L2.0000 2.0000
" />
<path d="M25.0000 2.0000
L25.0000 0.0000
" />
<path d="M50.0000 2.0000
L50.0000 0.0000
" />
<path d="M75.0000 2.0000
L75.0000 0.0000
" />
<path d="M100.0000 2.0000
L100.0000 0.0000
" />
<text x="12.5000" y="1.4000"
textLength="1.0591" font-size="1.0666" lengthAdjust="spacingAndGlyphs"
text-anchor="start" opacity="0" stroke-opacity="0">1</text>
<g class="stroked-text"><desc>1</desc>
<path d="M13.2097 1.3620
L12.7525 1.3620
" />
<path d="M12.9811 1.3620
L12.9811 0.5620
" />
<path d="M12.9811 0.5620
L12.9049 0.6763
" />
<path d="M12.9049 0.6763
L12.8287 0.7525
" />
<path d="M12.8287 0.7525
L12.7525 0.7906
" />
</g><text x="37.5000" y="1.4000"
textLength="1.0591" font-size="1.0666" lengthAdjust="spacingAndGlyphs"
text-anchor="start" opacity="0" stroke-opacity="0">2</text>
<g class="stroked-text"><desc>2</desc>
<path d="M37.7525 0.6382
L37.7906 0.6001
" />
<path d="M37.7906 0.6001
L37.8668 0.5620
" />
<path d="M37.8668 0.5620
L38.0573 0.5620
" />
<path d="M38.0573 0.5620
L38.1335 0.6001
" />
<path d="M38.1335 0.6001
L38.1716 0.6382
" />
<path d="M38.1716 0.6382
L38.2097 0.7144
" />
<path d="M38.2097 0.7144
L38.2097 0.7906
" />
<path d="M38.2097 0.7906
L38.1716 0.9049
" />
<path d="M38.1716 0.9049
L37.7144 1.3620
" />
<path d="M37.7144 1.3620
L38.2097 1.3620
" />
</g><text x="62.5000" y="1.4000"
textLength="1.0591" font-size="1.0666" lengthAdjust="spacingAndGlyphs"
text-anchor="start" opacity="0" stroke-opacity="0">3</text>
<g class="stroked-text"><desc>3</desc>
<path d="M62.7144 0.5620
L63.2097 0.5620
" />
<path d="M63.2097 0.5620
L62.9430 0.8668
" />
<path d="M62.9430 0.8668
L63.0573 0.8668
" />
<path d="M63.0573 0.8668
L63.1335 0.9049
" />
<path d="M63.1335 0.9049
L63.1716 0.9430
" />
<path d="M63.1716 0.9430
L63.2097 1.0192
" />
<path d="M63.2097 1.0192
L63.2097 1.2097
" />
<path d="M63.2097 1.2097
L63.1716 1.2859
" />
<path d="M63.1716 1.2859
L63.1335 1.3240
" />
<path d="M63.1335 1.3240
L63.0573 1.3620
" />
<path d="M63.0573 1.3620
L62.8287 1.3620
" />
<path d="M62.8287 1.3620
L62.7525 1.3240
" />
<path d="M62.7525 1.3240
L62.7144 1.2859
" />
</g><text x="87.5000" y="1.4000"
textLength="1.0591" font-size="1.0666" lengthAdjust="spacingAndGlyphs"
text-anchor="start" opacity="0" stroke-opacity="0">4</text>
<g class="stroked-text"><desc>4</desc>
<path d="M88.1335 0.8287
L88.1335 1.3620
" />
<path d="M87.9430 0.5240
L87.7525 1.0954
" />
<path d="M87.7525 1.0954
L88.2478 1.0954
" />
</g><path d="M0.0000 25.0000
L2.0000 25.0000
" />
<path d="M0.0000 50.0000
L2.0000 50.0000
" />
<text x="1.0000" y="12.9000"
textLength="0.9829" font-size="1.0666" lengthAdjust="spacingAndGlyphs"
text-anchor="middle" opacity="0" stroke-opacity="0">A</text>
<g class="stroked-text"><desc>A</desc>
<path d="M0.8095 12.6335
L1.1905 12.6335
" />
<path d="M0.7333 12.8620
L1.0000 12.0620
" />
<path d="M1.0000 12.0620
L1.2667 12.8620
" />
</g><text x="1.0000" y="37.9000"
textLength="1.0972" font-size="1.0666" lengthAdjust="spacingAndGlyphs"
text-anchor="middle" opacity="0" stroke-opacity="0">B</text>
<g class="stroked-text"><desc>B</desc>
<path d="M1.0571 37.4430
L1.1714 37.4811
" />
<path d="M1.1714 37.4811
L1.2095 37.5192
" />
<path d="M1.2095 37.5192
L1.2476 37.5954
" />
<path d="M1.2476 37.5954
L1.2476 37.7097
" />
<path d="M1.2476 37.7097
L1.2095 37.7859
" />
<path d="M1.2095 37.7859
L1.1714 37.8240
" />
<path d="M1.1714 37.8240
L1.0952 37.8620
" />
<path d="M1.0952 37.8620
L0.7904 37.8620
" />
<path d="M0.7904 37.8620
L0.7904 37.0620
" />
<path d="M0.7904 37.0620
L1.0571 37.0620
" />
<path d="M1.0571 37.0620
L1.1333 37.1001
" />
<path d="M1.1333 37.1001
L1.1714 37.1382
" />
<path d="M1.1714 37.1382
L1.2095 37.2144
" />
<path d="M1.2095 37.2144
L1.2095 37.2906
" />
<path d="M1.2095 37.2906
L1.1714 37.3668
" />
<path d="M1.1714 37.3668
L1.1333 37.4049
" />
<path d="M1.1333 37.4049
L1.0571 37.4430
" />
<path d="M1.0571 37.4430
L0.7904 37.4430
" />
</g><path d="M25.0000 48.0000
L25.0000 50.0000
" />
<path d="M50.0000 48.0000
L50.0000 50.0000
" />
<path d="M75.0000 48.0000
L75.0000 50.0000
" />
<path d="M100.0000 48.0000
L100.0000 50.0000
" />
<text x="12.5000" y="49.4000"
textLength="1.0591" font-size="1.0666" lengthAdjust="spacingAndGlyphs"
text-anchor="start" opacity="0" stroke-opacity="0">1</text>
<g class="stroked-text"><desc>1</desc>
<path d="M13.2097 49.3620
L12.7525 49.3620
" />
<path d="M12.9811 49.3620
L12.9811 48.5620
" />
<path d="M12.9811 48.5620
L12.9049 48.6763
" />
<path d="M12.9049 48.6763
L12.8287 48.7525
" />
<path d="M12.8287 48.7525
L12.7525 48.7906
" />
</g><text x="37.5000" y="49.4000"
textLength="1.0591" font-size="1.0666" lengthAdjust="spacingAndGlyphs"
text-anchor="start" opacity="0" stroke-opacity="0">2</text>
<g class="stroked-text"><desc>2</desc>
<path d="M37.7525 48.6382
L37.7906 48.6001
" />
<path d="M37.7906 48.6001
L37.8668 48.5620
" />
<path d="M37.8668 48.5620
L38.0573 48.5620
" />
<path d="M38.0573 48.5620
L38.1335 48.6001
" />
<path d="M38.1335 48.6001
L38.1716 48.6382
" />
<path d="M38.1716 48.6382
L38.2097 48.7144
" />
<path d="M38.2097 48.7144
L38.2097 48.7906
" />
<path d="M38.2097 48.7906
L38.1716 48.9049
" />
<path d="M38.1716 48.9049
L37.7144 49.3620
" />
<path d="M37.7144 49.3620
L38.2097 49.3620
" />
</g><text x="62.5000" y="49.4000"
textLength="1.0591" font-size="1.0666" lengthAdjust="spacingAndGlyphs"
text-anchor="start" opacity="0" stroke-opacity="0">3</text>
<g class="stroked-text"><desc>3</desc>
<path d="M62.7144 48.5620
L63.2097 48.5620
" />
<path d="M63.2097 48.5620
L62.9430 48.8668
" />
<path d="M62.9430 48.8668
L63.0573 48.8668
" />
<path d="M63.0573 48.8668
L63.1335 48.9049
" />
<path d="M63.1335 48.9049
L63.1716 48.9430
" />
<path d="M63.1716 48.9430
L63.2097 49.0192
" />
<path d="M63.2097 49.0192
L63.2097 49.2097
" />
<path d="M63.2097 49.2097
L63.1716 49.2859
" />
<path d="M63.1716 49.2859
L63.1335 49.3240
" />
<path d="M63.1335 49.3240
L63.0573 49.3620
" />
<path d="M63.0573 49.3620
L62.8287 49.3620
" />
<path d="M62.8287 49.3620
L62.7525 49.3240
" />
<path d="M62.7525 49.3240
L62.7144 49.2859
" />
</g><text x="87.5000" y="49.4000"
textLength="1.0591" font-size="1.0666" lengthAdjust="spacingAndGlyphs"
text-anchor="start" opacity="0" stroke-opacity="0">4</text>
<g class="stroked-text"><desc>4</desc>
<path d="M88.1335 48.8287
L88.1335 49.3620
" />
<path d="M87.9430 48.5240
L87.7525 49.0954
" />
<path d="M87.7525 49.0954
L88.2478 49.0954
" />
</g><path d="M100.0000 25.0000
L98.0000 25.0000
" />
<path d="M100.0000 50.0000
L98.0000 50.0000
" />
<text x="99.0000" y="12.9000"
textLength="0.9829" font-size="1.0666" lengthAdjust="spacingAndGlyphs"
text-anchor="middle" opacity="0" stroke-opacity="0">A</text>
<g class="stroked-text"><desc>A</desc>
<path d="M98.8095 12.6335
L99.1905 12.6335
" />
<path d="M98.7333 12.8620
L99.0000 12.0620
" />
<path d="M99.0000 12.0620
L99.2667 12.8620
" />
</g><text x="99.0000" y="37.9000"
textLength="1.0972" font-size="1.0666" lengthAdjust="spacingAndGlyphs"
text-anchor="middle" opacity="0" stroke-opacity="0">B</text>
<g class="stroked-text"><desc>B</desc>
<path d="M99.0571 37.4430
L99.1714 37.4811
" />
<path d="M99.1714 37.4811
L99.2095 37.5192
" />
<path d="M99.2095 37.5192
L99.2476 37.5954
" />
<path d="M99.2476 37.5954
L99.2476 37.7097
" />
<path d="M99.2476 37.7097
L99.2095 37.7859
" />
<path d="M99.2095 37.7859
L99.1714 37.8240
" />
<path d="M99.1714 37.8240
L99.0952 37.8620
" />
<path d="M99.0952 37.8620
L98.7904 37.8620
" />
<path d="M98.7904 37.8620
L98.7904 37.0620
" />
<path d="M98.7904 37.0620
L99.0571 37.0620
" />
<path d="M99.0571 37.0620
L99.1333 37.1001
" />
<path d="M99.1333 37.1001
L99.1714 37.1382
" />
<path d="M99.1714 37.1382
L99.2095 37.2144
" />
<path d="M99.2095 37.2144
L99.2095 37.2906
" />
<path d="M99.2095 37.2906
L99.1714 37.3668
" />
<path d="M99.1714 37.3668
L99.1333 37.4049
" />
<path d="M99.1333 37.4049
L99.0571 37.4430
" />
<path d="M99.0571 37.4430
L98.7904 37.4430
" />
</g><path d="M50.0110 44.4978
L98.0000 44.4978
L98.0000 47.9998
L50.0110 47.9998
L50.0110 44.4978
" />
<text x="50.9890" y="46.9500"
textLength="35.3000" font-size="2.0000" lengthAdjust="spacingAndGlyphs"
text-anchor="start" opacity="0" stroke-opacity="0">File: invertVerstärker.kicad_sch</text>
<g class="stroked-text"><desc>File: invertVerstärker.kicad_sch</desc>
<path d="M51.9463 46.1002
L51.4463 46.1002
" />
<path d="M51.4463 46.8859
L51.4463 45.3859
" />
<path d="M51.4463 45.3859
L52.1606 45.3859
" />
<path d="M52.7320 46.8859
L52.7320 45.8859
" />
<path d="M52.7320 45.3859
L52.6606 45.4573
" />
<path d="M52.6606 45.4573
L52.7320 45.5287
" />
<path d="M52.7320 45.5287
L52.8034 45.4573
" />
<path d="M52.8034 45.4573
L52.7320 45.3859
" />
<path d="M52.7320 45.3859
L52.7320 45.5287
" />
<path d="M53.6606 46.8859
L53.5177 46.8145
" />
<path d="M53.5177 46.8145
L53.4463 46.6716
" />
<path d="M53.4463 46.6716
L53.4463 45.3859
" />
<path d="M54.8034 46.8145
L54.6606 46.8859
" />
<path d="M54.6606 46.8859
L54.3749 46.8859
" />
<path d="M54.3749 46.8859
L54.2320 46.8145
" />
<path d="M54.2320 46.8145
L54.1606 46.6716
" />
<path d="M54.1606 46.6716
L54.1606 46.1002
" />
<path d="M54.1606 46.1002
L54.2320 45.9573
" />
<path d="M54.2320 45.9573
L54.3749 45.8859
" />
<path d="M54.3749 45.8859
L54.6606 45.8859
" />
<path d="M54.6606 45.8859
L54.8034 45.9573
" />
<path d="M54.8034 45.9573
L54.8749 46.1002
" />
<path d="M54.8749 46.1002
L54.8749 46.2430
" />
<path d="M54.8749 46.2430
L54.1606 46.3859
" />
<path d="M55.5177 46.7430
L55.5891 46.8145
" />
<path d="M55.5891 46.8145
L55.5177 46.8859
" />
<path d="M55.5177 46.8859
L55.4463 46.8145
" />
<path d="M55.4463 46.8145
L55.5177 46.7430
" />
<path d="M55.5177 46.7430
L55.5177 46.8859
" />
<path d="M55.5177 45.9573
L55.5891 46.0287
" />
<path d="M55.5891 46.0287
L55.5177 46.1002
" />
<path d="M55.5177 46.1002
L55.4463 46.0287
" />
<path d="M55.4463 46.0287
L55.5177 45.9573
" />
<path d="M55.5177 45.9573
L55.5177 46.1002
" />
<path d="M57.3749 46.8859
L57.3749 45.8859
" />
<path d="M57.3749 45.3859
L57.3035 45.4573
" />
<path d="M57.3035 45.4573
L57.3749 45.5287
" />
<path d="M57.3749 45.5287
L57.4463 45.4573
" />
<path d="M57.4463 45.4573
L57.3749 45.3859
" />
<path d="M57.3749 45.3859
L57.3749 45.5287
" />
<path d="M58.0892 45.8859
L58.0892 46.8859
" />
<path d="M58.0892 46.0287
L58.1606 45.9573
" />
<path d="M58.1606 45.9573
L58.3035 45.8859
" />
<path d="M58.3035 45.8859
L58.5178 45.8859
" />
<path d="M58.5178 45.8859
L58.6606 45.9573
" />
<path d="M58.6606 45.9573
L58.7321 46.1002
" />
<path d="M58.7321 46.1002
L58.7321 46.8859
" />
<path d="M59.3034 45.8859
L59.6606 46.8859
" />
<path d="M59.6606 46.8859
L60.0177 45.8859
" />
<path d="M61.1606 46.8145
L61.0178 46.8859
" />
<path d="M61.0178 46.8859
L60.7321 46.8859
" />
<path d="M60.7321 46.8859
L60.5892 46.8145
" />
<path d="M60.5892 46.8145
L60.5178 46.6716
" />
<path d="M60.5178 46.6716
L60.5178 46.1002
" />
<path d="M60.5178 46.1002
L60.5892 45.9573
" />
<path d="M60.5892 45.9573
L60.7321 45.8859
" />
<path d="M60.7321 45.8859
L61.0178 45.8859
" />
<path d="M61.0178 45.8859
L61.1606 45.9573
" />
<path d="M61.1606 45.9573
L61.2321 46.1002
" />
<path d="M61.2321 46.1002
L61.2321 46.2430
" />
<path d="M61.2321 46.2430
L60.5178 46.3859
" />
<path d="M61.8749 46.8859
L61.8749 45.8859
" />
<path d="M61.8749 46.1716
L61.9463 46.0287
" />
<path d="M61.9463 46.0287
L62.0178 45.9573
" />
<path d="M62.0178 45.9573
L62.1606 45.8859
" />
<path d="M62.1606 45.8859
L62.3035 45.8859
" />
<path d="M62.5892 45.8859
L63.1606 45.8859
" />
<path d="M62.8035 45.3859
L62.8035 46.6716
" />
<path d="M62.8035 46.6716
L62.8749 46.8145
" />
<path d="M62.8749 46.8145
L63.0178 46.8859
" />
<path d="M63.0178 46.8859
L63.1606 46.8859
" />
<path d="M63.4463 45.3859
L63.9463 46.8859
" />
<path d="M63.9463 46.8859
L64.4463 45.3859
" />
<path d="M65.5177 46.8145
L65.3749 46.8859
" />
<path d="M65.3749 46.8859
L65.0892 46.8859
" />
<path d="M65.0892 46.8859
L64.9463 46.8145
" />
<path d="M64.9463 46.8145
L64.8749 46.6716
" />
<path d="M64.8749 46.6716
L64.8749 46.1002
" />
<path d="M64.8749 46.1002
L64.9463 45.9573
" />
<path d="M64.9463 45.9573
L65.0892 45.8859
" />
<path d="M65.0892 45.8859
L65.3749 45.8859
" />
<path d="M65.3749 45.8859
L65.5177 45.9573
" />
<path d="M65.5177 45.9573
L65.5892 46.1002
" />
<path d="M65.5892 46.1002
L65.5892 46.2430
" />
<path d="M65.5892 46.2430
L64.8749 46.3859
" />
<path d="M66.2320 46.8859
L66.2320 45.8859
" />
<path d="M66.2320 46.1716
L66.3034 46.0287
" />
<path d="M66.3034 46.0287
L66.3749 45.9573
" />
<path d="M66.3749 45.9573
L66.5177 45.8859
" />
<path d="M66.5177 45.8859
L66.6606 45.8859
" />
<path d="M67.0892 46.8145
L67.2320 46.8859
" />
<path d="M67.2320 46.8859
L67.5177 46.8859
" />
<path d="M67.5177 46.8859
L67.6606 46.8145
" />
<path d="M67.6606 46.8145
L67.7320 46.6716
" />
<path d="M67.7320 46.6716
L67.7320 46.6002
" />
<path d="M67.7320 46.6002
L67.6606 46.4573
" />
<path d="M67.6606 46.4573
L67.5177 46.3859
" />
<path d="M67.5177 46.3859
L67.3035 46.3859
" />
<path d="M67.3035 46.3859
L67.1606 46.3145
" />
<path d="M67.1606 46.3145
L67.0892 46.1716
" />
<path d="M67.0892 46.1716
L67.0892 46.1002
" />
<path d="M67.0892 46.1002
L67.1606 45.9573
" />
<path d="M67.1606 45.9573
L67.3035 45.8859
" />
<path d="M67.3035 45.8859
L67.5177 45.8859
" />
<path d="M67.5177 45.8859
L67.6606 45.9573
" />
<path d="M68.1606 45.8859
L68.7320 45.8859
" />
<path d="M68.3749 45.3859
L68.3749 46.6716
" />
<path d="M68.3749 46.6716
L68.4463 46.8145
" />
<path d="M68.4463 46.8145
L68.5892 46.8859
" />
<path d="M68.5892 46.8859
L68.7320 46.8859
" />
<path d="M69.8749 46.8859
L69.8749 46.1002
" />
<path d="M69.8749 46.1002
L69.8034 45.9573
" />
<path d="M69.8034 45.9573
L69.6606 45.8859
" />
<path d="M69.6606 45.8859
L69.3749 45.8859
" />
<path d="M69.3749 45.8859
L69.2320 45.9573
" />
<path d="M69.8749 46.8145
L69.7320 46.8859
" />
<path d="M69.7320 46.8859
L69.3749 46.8859
" />
<path d="M69.3749 46.8859
L69.2320 46.8145
" />
<path d="M69.2320 46.8145
L69.1606 46.6716
" />
<path d="M69.1606 46.6716
L69.1606 46.5287
" />
<path d="M69.1606 46.5287
L69.2320 46.3859
" />
<path d="M69.2320 46.3859
L69.3749 46.3145
" />
<path d="M69.3749 46.3145
L69.7320 46.3145
" />
<path d="M69.7320 46.3145
L69.8749 46.2430
" />
<path d="M69.2320 45.3859
L69.3034 45.4573
" />
<path d="M69.3034 45.4573
L69.2320 45.5287
" />
<path d="M69.2320 45.5287
L69.1606 45.4573
" />
<path d="M69.1606 45.4573
L69.2320 45.3859
" />
<path d="M69.2320 45.3859
L69.2320 45.5287
" />
<path d="M69.8034 45.3859
L69.8749 45.4573
" />
<path d="M69.8749 45.4573
L69.8034 45.5287
" />
<path d="M69.8034 45.5287
L69.7320 45.4573
" />
<path d="M69.7320 45.4573
L69.8034 45.3859
" />
<path d="M69.8034 45.3859
L69.8034 45.5287
" />
<path d="M70.5891 46.8859
L70.5891 45.8859
" />
<path d="M70.5891 46.1716
L70.6605 46.0287
" />
<path d="M70.6605 46.0287
L70.7320 45.9573
" />
<path d="M70.7320 45.9573
L70.8748 45.8859
" />
<path d="M70.8748 45.8859
L71.0177 45.8859
" />
<path d="M71.5177 46.8859
L71.5177 45.3859
" />
<path d="M71.6606 46.3145
L72.0891 46.8859
" />
<path d="M72.0891 45.8859
L71.5177 46.4573
" />
<path d="M73.3034 46.8145
L73.1606 46.8859
" />
<path d="M73.1606 46.8859
L72.8749 46.8859
" />
<path d="M72.8749 46.8859
L72.7320 46.8145
" />
<path d="M72.7320 46.8145
L72.6606 46.6716
" />
<path d="M72.6606 46.6716
L72.6606 46.1002
" />
<path d="M72.6606 46.1002
L72.7320 45.9573
" />
<path d="M72.7320 45.9573
L72.8749 45.8859
" />
<path d="M72.8749 45.8859
L73.1606 45.8859
" />
<path d="M73.1606 45.8859
L73.3034 45.9573
" />
<path d="M73.3034 45.9573
L73.3749 46.1002
" />
<path d="M73.3749 46.1002
L73.3749 46.2430
" />
<path d="M73.3749 46.2430
L72.6606 46.3859
" />
<path d="M74.0177 46.8859
L74.0177 45.8859
" />
<path d="M74.0177 46.1716
L74.0891 46.0287
" />
<path d="M74.0891 46.0287
L74.1606 45.9573
" />
<path d="M74.1606 45.9573
L74.3034 45.8859
" />
<path d="M74.3034 45.8859
L74.4463 45.8859
" />
<path d="M74.9463 46.7430
L75.0177 46.8145
" />
<path d="M75.0177 46.8145
L74.9463 46.8859
" />
<path d="M74.9463 46.8859
L74.8749 46.8145
" />
<path d="M74.8749 46.8145
L74.9463 46.7430
" />
<path d="M74.9463 46.7430
L74.9463 46.8859
" />
<path d="M75.6606 46.8859
L75.6606 45.3859
" />
<path d="M75.8035 46.3145
L76.2320 46.8859
" />
<path d="M76.2320 45.8859
L75.6606 46.4573
" />
<path d="M76.8749 46.8859
L76.8749 45.8859
" />
<path d="M76.8749 45.3859
L76.8035 45.4573
" />
<path d="M76.8035 45.4573
L76.8749 45.5287
" />
<path d="M76.8749 45.5287
L76.9463 45.4573
" />
<path d="M76.9463 45.4573
L76.8749 45.3859
" />
<path d="M76.8749 45.3859
L76.8749 45.5287
" />
<path d="M78.2321 46.8145
L78.0892 46.8859
" />
<path d="M78.0892 46.8859
L77.8035 46.8859
" />
<path d="M77.8035 46.8859
L77.6606 46.8145
" />
<path d="M77.6606 46.8145
L77.5892 46.7430
" />
<path d="M77.5892 46.7430
L77.5178 46.6002
" />
<path d="M77.5178 46.6002
L77.5178 46.1716
" />
<path d="M77.5178 46.1716
L77.5892 46.0287
" />
<path d="M77.5892 46.0287
L77.6606 45.9573
" />
<path d="M77.6606 45.9573
L77.8035 45.8859
" />
<path d="M77.8035 45.8859
L78.0892 45.8859
" />
<path d="M78.0892 45.8859
L78.2321 45.9573
" />
<path d="M79.5178 46.8859
L79.5178 46.1002
" />
<path d="M79.5178 46.1002
L79.4463 45.9573
" />
<path d="M79.4463 45.9573
L79.3035 45.8859
" />
<path d="M79.3035 45.8859
L79.0178 45.8859
" />
<path d="M79.0178 45.8859
L78.8749 45.9573
" />
<path d="M79.5178 46.8145
L79.3749 46.8859
" />
<path d="M79.3749 46.8859
L79.0178 46.8859
" />
<path d="M79.0178 46.8859
L78.8749 46.8145
" />
<path d="M78.8749 46.8145
L78.8035 46.6716
" />
<path d="M78.8035 46.6716
L78.8035 46.5287
" />
<path d="M78.8035 46.5287
L78.8749 46.3859
" />
<path d="M78.8749 46.3859
L79.0178 46.3145
" />
<path d="M79.0178 46.3145
L79.3749 46.3145
" />
<path d="M79.3749 46.3145
L79.5178 46.2430
" />
<path d="M80.8749 46.8859
L80.8749 45.3859
" />
<path d="M80.8749 46.8145
L80.7320 46.8859
" />
<path d="M80.7320 46.8859
L80.4463 46.8859
" />
<path d="M80.4463 46.8859
L80.3034 46.8145
" />
<path d="M80.3034 46.8145
L80.2320 46.7430
" />
<path d="M80.2320 46.7430
L80.1606 46.6002
" />
<path d="M80.1606 46.6002
L80.1606 46.1716
" />
<path d="M80.1606 46.1716
L80.2320 46.0287
" />
<path d="M80.2320 46.0287
L80.3034 45.9573
" />
<path d="M80.3034 45.9573
L80.4463 45.8859
" />
<path d="M80.4463 45.8859
L80.7320 45.8859
" />
<path d="M80.7320 45.8859
L80.8749 45.9573
" />
<path d="M81.2320 47.0287
L82.3748 47.0287
" />
<path d="M82.6606 46.8145
L82.8034 46.8859
" />
<path d="M82.8034 46.8859
L83.0891 46.8859
" />
<path d="M83.0891 46.8859
L83.2320 46.8145
" />
<path d="M83.2320 46.8145
L83.3034 46.6716
" />
<path d="M83.3034 46.6716
L83.3034 46.6002
" />
<path d="M83.3034 46.6002
L83.2320 46.4573
" />
<path d="M83.2320 46.4573
L83.0891 46.3859
" />
<path d="M83.0891 46.3859
L82.8749 46.3859
" />
<path d="M82.8749 46.3859
L82.7320 46.3145
" />
<path d="M82.7320 46.3145
L82.6606 46.1716
" />
<path d="M82.6606 46.1716
L82.6606 46.1002
" />
<path d="M82.6606 46.1002
L82.7320 45.9573
" />
<path d="M82.7320 45.9573
L82.8749 45.8859
" />
<path d="M82.8749 45.8859
L83.0891 45.8859
" />
<path d="M83.0891 45.8859
L83.2320 45.9573
" />
<path d="M84.5892 46.8145
L84.4463 46.8859
" />
<path d="M84.4463 46.8859
L84.1606 46.8859
" />
<path d="M84.1606 46.8859
L84.0177 46.8145
" />
<path d="M84.0177 46.8145
L83.9463 46.7430
" />
<path d="M83.9463 46.7430
L83.8749 46.6002
" />
<path d="M83.8749 46.6002
L83.8749 46.1716
" />
<path d="M83.8749 46.1716
L83.9463 46.0287
" />
<path d="M83.9463 46.0287
L84.0177 45.9573
" />
<path d="M84.0177 45.9573
L84.1606 45.8859
" />
<path d="M84.1606 45.8859
L84.4463 45.8859
" />
<path d="M84.4463 45.8859
L84.5892 45.9573
" />
<path d="M85.2320 46.8859
L85.2320 45.3859
" />
<path d="M85.8749 46.8859
L85.8749 46.1002
" />
<path d="M85.8749 46.1002
L85.8034 45.9573
" />
<path d="M85.8034 45.9573
L85.6606 45.8859
" />
<path d="M85.6606 45.8859
L85.4463 45.8859
" />
<path d="M85.4463 45.8859
L85.3034 45.9573
" />
<path d="M85.3034 45.9573
L85.2320 46.0287
" />
</g><path style="fill:#FFFFC2; fill-opacity:1.0000; stroke:none;fill-rule:evenodd;"
d="M 44.4500,16.5100
54.6100,16.5100
54.6100,29.2100
44.4500,29.2100
Z" /> 
<path style="fill:none; 
stroke:#840000; stroke-width:0.1524; stroke-opacity:1; 
stroke-linecap:round; stroke-linejoin:round;fill:none"
d="M 48.2600,19.0500
46.2601,20.0493
46.2601,18.0508
Z" /> 
<path style="fill:none; 
stroke:#840000; stroke-width:0.2540; stroke-opacity:1; 
stroke-linecap:round; stroke-linejoin:round;fill:none"
d="M 44.4500,16.5100
54.6100,16.5100
54.6100,29.2100
44.4500,29.2100
Z" /> 
</g>
<g style="fill:none; 
stroke:#840000; stroke-width:0.1524; stroke-opacity:1; 
stroke-linecap:round; stroke-linejoin:round;">
<text x="51.0540" y="20.9550"
textLength="4.5337" font-size="5.0800" lengthAdjust="spacingAndGlyphs"
text-anchor="middle" opacity="0" stroke-opacity="0">∞</text>
<g class="stroked-text"><desc>∞</desc>
<path style="fill:#840000; fill-opacity:1.0000; stroke:none;fill-rule:evenodd;"
d="M 52.2827,18.0692
52.4633,18.1310
52.6238,18.2293
52.7574,18.3575
52.8638,18.5116
52.9435,18.6919
52.9922,18.8864
53.0087,19.0946
52.9913,19.3193
52.9410,19.5219
52.8580,19.7076
52.7483,19.8639
52.6104,19.9929
52.4438,20.0919
52.2564,20.1534
52.0404,20.1747
51.8793,20.1591
51.7373,20.1140
51.6068,20.0429
51.4874,19.9507
51.3802,19.8406
51.2804,19.7099
51.1087,19.4158
50.9975,19.6119
50.8849,19.7655
50.7604,19.8974
50.6364,19.9986
50.5041,20.0776
50.3721,20.1296
50.2361,20.1597
50.1016,20.1696
49.8501,20.1460
49.6461,20.0803
49.4682,19.9749
49.3259,19.8420
49.2151,19.6824
49.1359,19.4987
49.0892,19.3012
49.0735,19.0946
49.0755,19.0690
49.4039,19.0690
49.4142,19.2288
49.4441,19.3728
49.4958,19.5050
49.5665,19.6154
49.6580,19.7066
49.7696,19.7762
49.8979,19.8193
50.0546,19.8346
50.1846,19.8197
50.2979,19.7764
50.4011,19.7071
50.5036,19.6082
50.5973,19.4897
50.6948,19.3377
50.7605,19.2188
51.2259,19.2188
51.3637,19.4752
51.4479,19.5933
51.5421,19.6964
51.6487,19.7839
51.7673,19.8518
51.8975,19.8950
52.0458,19.9100
52.1879,19.8937
52.3110,19.8465
52.4188,19.7709
52.5101,19.6699
52.5814,19.5491
52.6350,19.4040
52.6670,19.2463
52.6781,19.0690
52.6688,18.9292
52.6416,18.8005
52.5948,18.6818
52.5297,18.5825
52.4449,18.5006
52.3384,18.4371
52.2158,18.3979
52.0639,18.3838
51.9279,18.3996
51.8036,18.4464
51.6897,18.5196
51.5812,18.6193
51.4841,18.7379
51.3911,18.8833
51.2259,19.2188
50.7605,19.2188
50.8979,18.9701
50.7811,18.7444
50.6590,18.5793
50.5322,18.4634
50.3848,18.3765
50.2318,18.3255
50.0702,18.3085
49.9423,18.3198
49.8191,18.3538
49.7055,18.4111
49.6056,18.4927
49.5241,18.5965
49.4586,18.7302
49.4184,18.8819
49.4039,19.0690
49.0755,19.0690
49.0908,18.8749
49.1410,18.6774
49.2240,18.4971
49.3336,18.3459
49.4712,18.2217
49.6368,18.1270
49.8231,18.0684
50.0390,18.0479
50.2012,18.0615
50.3475,18.1012
50.4836,18.1648
50.6090,18.2501
50.7225,18.3542
50.8276,18.4795
51.0098,18.7733
51.1270,18.5688
51.2441,18.4145
51.3745,18.2857
51.5044,18.1917
51.6432,18.1222
51.7840,18.0791
51.9294,18.0557
52.0769,18.0479
Z" /> 
</g></g>
<g style="fill:none; 
stroke:#840000; stroke-width:0.1524; stroke-opacity:1; 
stroke-linecap:round; stroke-linejoin:round;">
<path d="M44.4500 21.5900
L41.9100 21.5900
" />
</g>
<g style="fill:none; 
stroke:#006464; stroke-width:0.1524; stroke-opacity:1; 
stroke-linecap:round; stroke-linejoin:round;">
<text x="44.5770" y="22.2250"
textLength="1.7756" font-size="1.6933" lengthAdjust="spacingAndGlyphs"
text-anchor="start" opacity="0" stroke-opacity="0">+</text>
<g class="stroked-text"><desc>+</desc>
<path d="M44.9795 21.6857
L45.9472 21.6857
" />
<path d="M45.4633 22.1695
L45.4633 21.2019
" />
</g></g>
<g style="fill:none; 
stroke:#A90000; stroke-width:0.1524; stroke-opacity:1; 
stroke-linecap:round; stroke-linejoin:round;">
<text x="43.1800" y="21.3360"
textLength="1.4127" font-size="1.6933" lengthAdjust="spacingAndGlyphs"
text-anchor="middle" opacity="0" stroke-opacity="0">3</text>
<g class="stroked-text"><desc>3</desc>
<path d="M42.7567 19.9025
L43.5429 19.9025
" />
<path d="M43.5429 19.9025
L43.1195 20.3863
" />
<path d="M43.1195 20.3863
L43.3010 20.3863
" />
<path d="M43.3010 20.3863
L43.4219 20.4468
" />
<path d="M43.4219 20.4468
L43.4824 20.5073
" />
<path d="M43.4824 20.5073
L43.5429 20.6282
" />
<path d="M43.5429 20.6282
L43.5429 20.9306
" />
<path d="M43.5429 20.9306
L43.4824 21.0516
" />
<path d="M43.4824 21.0516
L43.4219 21.1121
" />
<path d="M43.4219 21.1121
L43.3010 21.1725
" />
<path d="M43.3010 21.1725
L42.9381 21.1725
" />
<path d="M42.9381 21.1725
L42.8172 21.1121
" />
<path d="M42.8172 21.1121
L42.7567 21.0516
" />
</g></g>
<g style="fill:none; 
stroke:#840000; stroke-width:0.1524; stroke-opacity:1; 
stroke-linecap:round; stroke-linejoin:round;">
<path d="M44.4500 26.6700
L41.9100 26.6700
" />
</g>
<g style="fill:none; 
stroke:#006464; stroke-width:0.1524; stroke-opacity:1; 
stroke-linecap:round; stroke-linejoin:round;">
<text x="44.5770" y="27.3050"
textLength="1.7756" font-size="1.6933" lengthAdjust="spacingAndGlyphs"
text-anchor="start" opacity="0" stroke-opacity="0">-</text>
<g class="stroked-text"><desc>-</desc>
<path d="M44.9795 26.7657
L45.9472 26.7657
" />
</g></g>
<g style="fill:none; 
stroke:#A90000; stroke-width:0.1524; stroke-opacity:1; 
stroke-linecap:round; stroke-linejoin:round;">
<text x="43.1800" y="26.4160"
textLength="1.4127" font-size="1.6933" lengthAdjust="spacingAndGlyphs"
text-anchor="middle" opacity="0" stroke-opacity="0">2</text>
<g class="stroked-text"><desc>2</desc>
<path d="M42.8172 25.1035
L42.8776 25.0430
" />
<path d="M42.8776 25.0430
L42.9986 24.9825
" />
<path d="M42.9986 24.9825
L43.3010 24.9825
" />
<path d="M43.3010 24.9825
L43.4219 25.0430
" />
<path d="M43.4219 25.0430
L43.4824 25.1035
" />
<path d="M43.4824 25.1035
L43.5429 25.2244
" />
<path d="M43.5429 25.2244
L43.5429 25.3454
" />
<path d="M43.5429 25.3454
L43.4824 25.5268
" />
<path d="M43.4824 25.5268
L42.7567 26.2525
" />
<path d="M42.7567 26.2525
L43.5429 26.2525
" />
</g></g>
<g style="fill:none; 
stroke:#840000; stroke-width:0.1524; stroke-opacity:1; 
stroke-linecap:round; stroke-linejoin:round;">
<path d="M54.6100 26.6700
L57.1500 26.6700
" />
</g>
<g style="fill:none; 
stroke:#A90000; stroke-width:0.1524; stroke-opacity:1; 
stroke-linecap:round; stroke-linejoin:round;">
<text x="55.8800" y="26.4160"
textLength="1.4127" font-size="1.6933" lengthAdjust="spacingAndGlyphs"
text-anchor="middle" opacity="0" stroke-opacity="0">1</text>
<g class="stroked-text"><desc>1</desc>
<path d="M56.2429 26.2525
L55.5172 26.2525
" />
<path d="M55.8800 26.2525
L55.8800 24.9825
" />
<path d="M55.8800 24.9825
L55.7591 25.1640
" />
<path d="M55.7591 25.1640
L55.6381 25.2849
" />
<path d="M55.6381 25.2849
L55.5172 25.3454
" />
</g></g>
<g style="fill:none; 
stroke:#006464; stroke-width:0.1524; stroke-opacity:1; 
stroke-linecap:round; stroke-linejoin:round;">
<text x="49.5300" y="15.6210"
textLength="3.8318" font-size="1.6933" lengthAdjust="spacingAndGlyphs"
text-anchor="middle" opacity="0" stroke-opacity="0">U1A</text>
<g class="stroked-text"><desc>U1A</desc>
<path d="M48.0180 14.2955
L48.0180 15.3236
" />
<path d="M48.0180 15.3236
L48.0785 15.4446
" />
<path d="M48.0785 15.4446
L48.1390 15.5051
" />
<path d="M48.1390 15.5051
L48.2599 15.5655
" />
<path d="M48.2599 15.5655
L48.5018 15.5655
" />
<path d="M48.5018 15.5655
L48.6228 15.5051
" />
<path d="M48.6228 15.5051
L48.6833 15.4446
" />
<path d="M48.6833 15.4446
L48.7437 15.3236
" />
<path d="M48.7437 15.3236
L48.7437 14.2955
" />
<path d="M50.0138 15.5655
L49.2881 15.5655
" />
<path d="M49.6509 15.5655
L49.6509 14.2955
" />
<path d="M49.6509 14.2955
L49.5300 14.4770
" />
<path d="M49.5300 14.4770
L49.4090 14.5979
" />
<path d="M49.4090 14.5979
L49.2881 14.6584
" />
<path d="M50.4976 15.2027
L51.1023 15.2027
" />
<path d="M50.3766 15.5655
L50.7999 14.2955
" />
<path d="M50.7999 14.2955
L51.2233 15.5655
" />
</g></g>
<g style="fill:none; 
stroke:#840000; stroke-width:0.2540; stroke-opacity:1; 
stroke-linecap:round; stroke-linejoin:round;">
<rect x="46.990000" y="10.414000" width="5.080000" height="2.032000" rx="0.000000" />
</g>
<g style="fill:none; 
stroke:#840000; stroke-width:0.1524; stroke-opacity:1; 
stroke-linecap:round; stroke-linejoin:round;">
<path d="M46.9900 11.4300
L45.7200 11.4300
" />
<path d="M52.0700 11.4300
L53.3400 11.4300
" />
</g>
<g style="fill:none; 
stroke:#006464; stroke-width:0.1524; stroke-opacity:1; 
stroke-linecap:round; stroke-linejoin:round;">
<text x="49.5299" y="9.5249"
textLength="2.6827" font-size="1.6933" lengthAdjust="spacingAndGlyphs"
text-anchor="middle" opacity="0" stroke-opacity="0">R2</text>
<g class="stroked-text"><desc>R2</desc>
<path d="M49.3182 9.4694
L48.8949 8.8647
" />
<path d="M48.5925 9.4694
L48.5925 8.1994
" />
<path d="M48.5925 8.1994
L49.0763 8.1994
" />
<path d="M49.0763 8.1994
L49.1973 8.2599
" />
<path d="M49.1973 8.2599
L49.2578 8.3204
" />
<path d="M49.2578 8.3204
L49.3182 8.4413
" />
<path d="M49.3182 8.4413
L49.3182 8.6228
" />
<path d="M49.3182 8.6228
L49.2578 8.7437
" />
<path d="M49.2578 8.7437
L49.1973 8.8042
" />
<path d="M49.1973 8.8042
L49.0763 8.8647
" />
<path d="M49.0763 8.8647
L48.5925 8.8647
" />
<path d="M49.8021 8.3204
L49.8625 8.2599
" />
<path d="M49.8625 8.2599
L49.9835 8.1994
" />
<path d="M49.9835 8.1994
L50.2859 8.1994
" />
<path d="M50.2859 8.1994
L50.4068 8.2599
" />
<path d="M50.4068 8.2599
L50.4673 8.3204
" />
<path d="M50.4673 8.3204
L50.5278 8.4413
" />
<path d="M50.5278 8.4413
L50.5278 8.5623
" />
<path d="M50.5278 8.5623
L50.4673 8.7437
" />
<path d="M50.4673 8.7437
L49.7416 9.4694
" />
<path d="M49.7416 9.4694
L50.5278 9.4694
" />
</g></g>
<g style="fill:none; 
stroke:#840000; stroke-width:0.2540; stroke-opacity:1; 
stroke-linecap:round; stroke-linejoin:round;">
<rect x="30.480000" y="25.654000" width="5.080000" height="2.032000" rx="0.000000" />
</g>
<g style="fill:none; 
stroke:#840000; stroke-width:0.1524; stroke-opacity:1; 
stroke-linecap:round; stroke-linejoin:round;">
<path d="M30.4800 26.6700
L29.2100 26.6700
" />
<path d="M35.5600 26.6700
L36.8300 26.6700
" />
</g>
<g style="fill:none; 
stroke:#006464; stroke-width:0.1524; stroke-opacity:1; 
stroke-linecap:round; stroke-linejoin:round;">
<text x="33.0199" y="24.7649"
textLength="2.6827" font-size="1.6933" lengthAdjust="spacingAndGlyphs"
text-anchor="middle" opacity="0" stroke-opacity="0">R1</text>
<g class="stroked-text"><desc>R1</desc>
<path d="M32.8082 24.7094
L32.3849 24.1047
" />
<path d="M32.0825 24.7094
L32.0825 23.4394
" />
<path d="M32.0825 23.4394
L32.5663 23.4394
" />
<path d="M32.5663 23.4394
L32.6873 23.4999
" />
<path d="M32.6873 23.4999
L32.7478 23.5604
" />
<path d="M32.7478 23.5604
L32.8082 23.6813
" />
<path d="M32.8082 23.6813
L32.8082 23.8628
" />
<path d="M32.8082 23.8628
L32.7478 23.9837
" />
<path d="M32.7478 23.9837
L32.6873 24.0442
" />
<path d="M32.6873 24.0442
L32.5663 24.1047
" />
<path d="M32.5663 24.1047
L32.0825 24.1047
" />
<path d="M34.0178 24.7094
L33.2921 24.7094
" />
<path d="M33.6549 24.7094
L33.6549 23.4394
" />
<path d="M33.6549 23.4394
L33.5340 23.6209
" />
<path d="M33.5340 23.6209
L33.4130 23.7418
" />
<path d="M33.4130 23.7418
L33.2921 23.8023
" />
</g></g>
<g style="fill:#840000; fill-opacity:1.0000; 
stroke:#840000; stroke-width:0.2540; stroke-opacity:1; 
stroke-linecap:round; stroke-linejoin:round;">
<rect x="38.100000" y="34.544000" width="2.540000" height="0.508000" rx="0.000000" />
<path style="fill:none; 
stroke:#840000; stroke-width:0.1524; stroke-opacity:1; 
stroke-linecap:round; stroke-linejoin:round;fill:none"
d="M 39.3700,33.0200
39.3700,34.5440
" /> 
</g>
<g style="fill:none; 
stroke:#840000; stroke-width:0.1524; stroke-opacity:1; 
stroke-linecap:round; stroke-linejoin:round;">
<path d="M39.3700 33.0200
L39.3700 33.0200
" />
</g>
<g style="fill:none; 
stroke:#006464; stroke-width:0.1524; stroke-opacity:1; 
stroke-linecap:round; stroke-linejoin:round;">
<text x="39.3700" y="37.4650"
textLength="4.0737" font-size="1.6933" lengthAdjust="spacingAndGlyphs"
text-anchor="middle" opacity="0" stroke-opacity="0">GND</text>
<g class="stroked-text"><desc>GND</desc>
<path d="M38.4024 36.2000
L38.2814 36.1395
" />
<path d="M38.2814 36.1395
L38.1000 36.1395
" />
<path d="M38.1000 36.1395
L37.9186 36.2000
" />
<path d="M37.9186 36.2000
L37.7976 36.3210
" />
<path d="M37.7976 36.3210
L37.7371 36.4419
" />
<path d="M37.7371 36.4419
L37.6767 36.6838
" />
<path d="M37.6767 36.6838
L37.6767 36.8652
" />
<path d="M37.6767 36.8652
L37.7371 37.1071
" />
<path d="M37.7371 37.1071
L37.7976 37.2281
" />
<path d="M37.7976 37.2281
L37.9186 37.3491
" />
<path d="M37.9186 37.3491
L38.1000 37.4095
" />
<path d="M38.1000 37.4095
L38.2209 37.4095
" />
<path d="M38.2209 37.4095
L38.4024 37.3491
" />
<path d="M38.4024 37.3491
L38.4628 37.2886
" />
<path d="M38.4628 37.2886
L38.4628 36.8652
" />
<path d="M38.4628 36.8652
L38.2209 36.8652
" />
<path d="M39.0071 37.4095
L39.0071 36.1395
" />
<path d="M39.0071 36.1395
L39.7328 37.4095
" />
<path d="M39.7328 37.4095
L39.7328 36.1395
" />
<path d="M40.3376 37.4095
L40.3376 36.1395
" />
<path d="M40.3376 36.1395
L40.6400 36.1395
" />
<path d="M40.6400 36.1395
L40.8214 36.2000
" />
<path d="M40.8214 36.2000
L40.9424 36.3210
" />
<path d="M40.9424 36.3210
L41.0029 36.4419
" />
<path d="M41.0029 36.4419
L41.0633 36.6838
" />
<path d="M41.0633 36.6838
L41.0633 36.8652
" />
<path d="M41.0633 36.8652
L41.0029 37.1071
" />
<path d="M41.0029 37.1071
L40.9424 37.2281
" />
<path d="M40.9424 37.2281
L40.8214 37.3491
" />
<path d="M40.8214 37.3491
L40.6400 37.4095
" />
<path d="M40.6400 37.4095
L40.3376 37.4095
" />
</g></g>
<g style="fill:none; 
stroke:#484848; stroke-width:0.1524; stroke-opacity:1; 
stroke-linecap:round; stroke-linejoin:round;">
<g transform="rotate(-90.000000 61.8871 26.6700)">
<text x="61.8871" y="26.6700"
textLength="0.4572" font-size="1.6933" lengthAdjust="spacingAndGlyphs"
text-anchor="end" opacity="0" stroke-opacity="0"></text>
</g>
<g class="stroked-text"><desc></desc>
</g><path d="M62.2300 26.6700
L64.2620 26.6700
" />
<circle cx="64.7700" cy="26.6700" r="0.5080" /> 
</g>
<g style="fill:none; 
stroke:#840084; stroke-width:0.1524; stroke-opacity:1; 
stroke-linecap:round; stroke-linejoin:round;">
<text x="65.5320" y="27.3050"
textLength="16.5919" font-size="1.6933" lengthAdjust="spacingAndGlyphs"
text-anchor="start" opacity="0" stroke-opacity="0">Ausgangs-Signal</text>
<g class="stroked-text"><desc>Ausgangs-Signal</desc>
<path d="M65.8741 26.8867
L66.4788 26.8867
" />
<path d="M65.7531 27.2495
L66.1764 25.9795
" />
<path d="M66.1764 25.9795
L66.5998 27.2495
" />
<path d="M67.5674 26.4029
L67.5674 27.2495
" />
<path d="M67.0231 26.4029
L67.0231 27.0681
" />
<path d="M67.0231 27.0681
L67.0836 27.1891
" />
<path d="M67.0836 27.1891
L67.2046 27.2495
" />
<path d="M67.2046 27.2495
L67.3860 27.2495
" />
<path d="M67.3860 27.2495
L67.5069 27.1891
" />
<path d="M67.5069 27.1891
L67.5674 27.1286
" />
<path d="M68.1117 27.1891
L68.2326 27.2495
" />
<path d="M68.2326 27.2495
L68.4745 27.2495
" />
<path d="M68.4745 27.2495
L68.5955 27.1891
" />
<path d="M68.5955 27.1891
L68.6559 27.0681
" />
<path d="M68.6559 27.0681
L68.6559 27.0076
" />
<path d="M68.6559 27.0076
L68.5955 26.8867
" />
<path d="M68.5955 26.8867
L68.4745 26.8262
" />
<path d="M68.4745 26.8262
L68.2931 26.8262
" />
<path d="M68.2931 26.8262
L68.1721 26.7657
" />
<path d="M68.1721 26.7657
L68.1117 26.6448
" />
<path d="M68.1117 26.6448
L68.1117 26.5843
" />
<path d="M68.1117 26.5843
L68.1721 26.4633
" />
<path d="M68.1721 26.4633
L68.2931 26.4029
" />
<path d="M68.2931 26.4029
L68.4745 26.4029
" />
<path d="M68.4745 26.4029
L68.5955 26.4633
" />
<path d="M69.7445 26.4029
L69.7445 27.4310
" />
<path d="M69.7445 27.4310
L69.6840 27.5519
" />
<path d="M69.6840 27.5519
L69.6236 27.6124
" />
<path d="M69.6236 27.6124
L69.5026 27.6729
" />
<path d="M69.5026 27.6729
L69.3212 27.6729
" />
<path d="M69.3212 27.6729
L69.2002 27.6124
" />
<path d="M69.7445 27.1891
L69.6236 27.2495
" />
<path d="M69.6236 27.2495
L69.3817 27.2495
" />
<path d="M69.3817 27.2495
L69.2607 27.1891
" />
<path d="M69.2607 27.1891
L69.2002 27.1286
" />
<path d="M69.2002 27.1286
L69.1398 27.0076
" />
<path d="M69.1398 27.0076
L69.1398 26.6448
" />
<path d="M69.1398 26.6448
L69.2002 26.5238
" />
<path d="M69.2002 26.5238
L69.2607 26.4633
" />
<path d="M69.2607 26.4633
L69.3817 26.4029
" />
<path d="M69.3817 26.4029
L69.6236 26.4029
" />
<path d="M69.6236 26.4029
L69.7445 26.4633
" />
<path d="M70.8935 27.2495
L70.8935 26.5843
" />
<path d="M70.8935 26.5843
L70.8330 26.4633
" />
<path d="M70.8330 26.4633
L70.7121 26.4029
" />
<path d="M70.7121 26.4029
L70.4702 26.4029
" />
<path d="M70.4702 26.4029
L70.3492 26.4633
" />
<path d="M70.8935 27.1891
L70.7726 27.2495
" />
<path d="M70.7726 27.2495
L70.4702 27.2495
" />
<path d="M70.4702 27.2495
L70.3492 27.1891
" />
<path d="M70.3492 27.1891
L70.2888 27.0681
" />
<path d="M70.2888 27.0681
L70.2888 26.9471
" />
<path d="M70.2888 26.9471
L70.3492 26.8262
" />
<path d="M70.3492 26.8262
L70.4702 26.7657
" />
<path d="M70.4702 26.7657
L70.7726 26.7657
" />
<path d="M70.7726 26.7657
L70.8935 26.7052
" />
<path d="M71.4982 26.4029
L71.4982 27.2495
" />
<path d="M71.4982 26.5238
L71.5587 26.4633
" />
<path d="M71.5587 26.4633
L71.6797 26.4029
" />
<path d="M71.6797 26.4029
L71.8611 26.4029
" />
<path d="M71.8611 26.4029
L71.9820 26.4633
" />
<path d="M71.9820 26.4633
L72.0425 26.5843
" />
<path d="M72.0425 26.5843
L72.0425 27.2495
" />
<path d="M73.1915 26.4029
L73.1915 27.4310
" />
<path d="M73.1915 27.4310
L73.1310 27.5519
" />
<path d="M73.1310 27.5519
L73.0706 27.6124
" />
<path d="M73.0706 27.6124
L72.9496 27.6729
" />
<path d="M72.9496 27.6729
L72.7682 27.6729
" />
<path d="M72.7682 27.6729
L72.6472 27.6124
" />
<path d="M73.1915 27.1891
L73.0706 27.2495
" />
<path d="M73.0706 27.2495
L72.8287 27.2495
" />
<path d="M72.8287 27.2495
L72.7077 27.1891
" />
<path d="M72.7077 27.1891
L72.6472 27.1286
" />
<path d="M72.6472 27.1286
L72.5868 27.0076
" />
<path d="M72.5868 27.0076
L72.5868 26.6448
" />
<path d="M72.5868 26.6448
L72.6472 26.5238
" />
<path d="M72.6472 26.5238
L72.7077 26.4633
" />
<path d="M72.7077 26.4633
L72.8287 26.4029
" />
<path d="M72.8287 26.4029
L73.0706 26.4029
" />
<path d="M73.0706 26.4029
L73.1915 26.4633
" />
<path d="M73.7358 27.1891
L73.8567 27.2495
" />
<path d="M73.8567 27.2495
L74.0986 27.2495
" />
<path d="M74.0986 27.2495
L74.2196 27.1891
" />
<path d="M74.2196 27.1891
L74.2800 27.0681
" />
<path d="M74.2800 27.0681
L74.2800 27.0076
" />
<path d="M74.2800 27.0076
L74.2196 26.8867
" />
<path d="M74.2196 26.8867
L74.0986 26.8262
" />
<path d="M74.0986 26.8262
L73.9172 26.8262
" />
<path d="M73.9172 26.8262
L73.7962 26.7657
" />
<path d="M73.7962 26.7657
L73.7358 26.6448
" />
<path d="M73.7358 26.6448
L73.7358 26.5843
" />
<path d="M73.7358 26.5843
L73.7962 26.4633
" />
<path d="M73.7962 26.4633
L73.9172 26.4029
" />
<path d="M73.9172 26.4029
L74.0986 26.4029
" />
<path d="M74.0986 26.4029
L74.2196 26.4633
" />
<path d="M74.8243 26.7657
L75.7920 26.7657
" />
<path d="M76.3363 27.1891
L76.5177 27.2495
" />
<path d="M76.5177 27.2495
L76.8201 27.2495
" />
<path d="M76.8201 27.2495
L76.9410 27.1891
" />
<path d="M76.9410 27.1891
L77.0015 27.1286
" />
<path d="M77.0015 27.1286
L77.0620 27.0076
" />
<path d="M77.0620 27.0076
L77.0620 26.8867
" />
<path d="M77.0620 26.8867
L77.0015 26.7657
" />
<path d="M77.0015 26.7657
L76.9410 26.7052
" />
<path d="M76.9410 26.7052
L76.8201 26.6448
" />
<path d="M76.8201 26.6448
L76.5782 26.5843
" />
<path d="M76.5782 26.5843
L76.4572 26.5238
" />
<path d="M76.4572 26.5238
L76.3967 26.4633
" />
<path d="M76.3967 26.4633
L76.3363 26.3424
" />
<path d="M76.3363 26.3424
L76.3363 26.2214
" />
<path d="M76.3363 26.2214
L76.3967 26.1005
" />
<path d="M76.3967 26.1005
L76.4572 26.0400
" />
<path d="M76.4572 26.0400
L76.5782 25.9795
" />
<path d="M76.5782 25.9795
L76.8805 25.9795
" />
<path d="M76.8805 25.9795
L77.0620 26.0400
" />
<path d="M77.6062 27.2495
L77.6062 26.4029
" />
<path d="M77.6062 25.9795
L77.5458 26.0400
" />
<path d="M77.5458 26.0400
L77.6062 26.1005
" />
<path d="M77.6062 26.1005
L77.6667 26.0400
" />
<path d="M77.6667 26.0400
L77.6062 25.9795
" />
<path d="M77.6062 25.9795
L77.6062 26.1005
" />
<path d="M78.7553 26.4029
L78.7553 27.4310
" />
<path d="M78.7553 27.4310
L78.6948 27.5519
" />
<path d="M78.6948 27.5519
L78.6344 27.6124
" />
<path d="M78.6344 27.6124
L78.5134 27.6729
" />
<path d="M78.5134 27.6729
L78.3320 27.6729
" />
<path d="M78.3320 27.6729
L78.2110 27.6124
" />
<path d="M78.7553 27.1891
L78.6344 27.2495
" />
<path d="M78.6344 27.2495
L78.3925 27.2495
" />
<path d="M78.3925 27.2495
L78.2715 27.1891
" />
<path d="M78.2715 27.1891
L78.2110 27.1286
" />
<path d="M78.2110 27.1286
L78.1506 27.0076
" />
<path d="M78.1506 27.0076
L78.1506 26.6448
" />
<path d="M78.1506 26.6448
L78.2110 26.5238
" />
<path d="M78.2110 26.5238
L78.2715 26.4633
" />
<path d="M78.2715 26.4633
L78.3925 26.4029
" />
<path d="M78.3925 26.4029
L78.6344 26.4029
" />
<path d="M78.6344 26.4029
L78.7553 26.4633
" />
<path d="M79.3600 26.4029
L79.3600 27.2495
" />
<path d="M79.3600 26.5238
L79.4205 26.4633
" />
<path d="M79.4205 26.4633
L79.5415 26.4029
" />
<path d="M79.5415 26.4029
L79.7229 26.4029
" />
<path d="M79.7229 26.4029
L79.8438 26.4633
" />
<path d="M79.8438 26.4633
L79.9043 26.5843
" />
<path d="M79.9043 26.5843
L79.9043 27.2495
" />
<path d="M81.0533 27.2495
L81.0533 26.5843
" />
<path d="M81.0533 26.5843
L80.9928 26.4633
" />
<path d="M80.9928 26.4633
L80.8719 26.4029
" />
<path d="M80.8719 26.4029
L80.6300 26.4029
" />
<path d="M80.6300 26.4029
L80.5090 26.4633
" />
<path d="M81.0533 27.1891
L80.9324 27.2495
" />
<path d="M80.9324 27.2495
L80.6300 27.2495
" />
<path d="M80.6300 27.2495
L80.5090 27.1891
" />
<path d="M80.5090 27.1891
L80.4486 27.0681
" />
<path d="M80.4486 27.0681
L80.4486 26.9471
" />
<path d="M80.4486 26.9471
L80.5090 26.8262
" />
<path d="M80.5090 26.8262
L80.6300 26.7657
" />
<path d="M80.6300 26.7657
L80.9324 26.7657
" />
<path d="M80.9324 26.7657
L81.0533 26.7052
" />
<path d="M81.8395 27.2495
L81.7185 27.1891
" />
<path d="M81.7185 27.1891
L81.6580 27.0681
" />
<path d="M81.6580 27.0681
L81.6580 25.9795
" />
</g></g>
<g style="fill:none; 
stroke:#484848; stroke-width:0.1524; stroke-opacity:1; 
stroke-linecap:round; stroke-linejoin:round;">
<g transform="rotate(-90.000000 28.8671 26.6700)">
<text x="28.8671" y="26.6700"
textLength="0.4572" font-size="1.6933" lengthAdjust="spacingAndGlyphs"
text-anchor="start" opacity="0" stroke-opacity="0"></text>
</g>
<g class="stroked-text"><desc></desc>
</g><path d="M29.2100 26.6700
L27.1780 26.6700
" />
<circle cx="26.6700" cy="26.6700" r="0.5080" /> 
</g>
<g style="fill:none; 
stroke:#840084; stroke-width:0.1524; stroke-opacity:1; 
stroke-linecap:round; stroke-linejoin:round;">
<text x="9.6520" y="27.0510"
textLength="16.2290" font-size="1.6933" lengthAdjust="spacingAndGlyphs"
text-anchor="start" opacity="0" stroke-opacity="0">Eingangs-Signal</text>
<g class="stroked-text"><desc>Eingangs-Signal</desc>
<path d="M10.0545 26.3303
L10.4779 26.3303
" />
<path d="M10.6593 26.9955
L10.0545 26.9955
" />
<path d="M10.0545 26.9955
L10.0545 25.7255
" />
<path d="M10.0545 25.7255
L10.6593 25.7255
" />
<path d="M11.2035 26.9955
L11.2035 26.1489
" />
<path d="M11.2035 25.7255
L11.1431 25.7860
" />
<path d="M11.1431 25.7860
L11.2035 25.8465
" />
<path d="M11.2035 25.8465
L11.2640 25.7860
" />
<path d="M11.2640 25.7860
L11.2035 25.7255
" />
<path d="M11.2035 25.7255
L11.2035 25.8465
" />
<path d="M11.8083 26.1489
L11.8083 26.9955
" />
<path d="M11.8083 26.2698
L11.8688 26.2093
" />
<path d="M11.8688 26.2093
L11.9898 26.1489
" />
<path d="M11.9898 26.1489
L12.1712 26.1489
" />
<path d="M12.1712 26.1489
L12.2921 26.2093
" />
<path d="M12.2921 26.2093
L12.3526 26.3303
" />
<path d="M12.3526 26.3303
L12.3526 26.9955
" />
<path d="M13.5016 26.1489
L13.5016 27.1770
" />
<path d="M13.5016 27.1770
L13.4411 27.2979
" />
<path d="M13.4411 27.2979
L13.3807 27.3584
" />
<path d="M13.3807 27.3584
L13.2597 27.4189
" />
<path d="M13.2597 27.4189
L13.0783 27.4189
" />
<path d="M13.0783 27.4189
L12.9573 27.3584
" />
<path d="M13.5016 26.9351
L13.3807 26.9955
" />
<path d="M13.3807 26.9955
L13.1388 26.9955
" />
<path d="M13.1388 26.9955
L13.0178 26.9351
" />
<path d="M13.0178 26.9351
L12.9573 26.8746
" />
<path d="M12.9573 26.8746
L12.8969 26.7536
" />
<path d="M12.8969 26.7536
L12.8969 26.3908
" />
<path d="M12.8969 26.3908
L12.9573 26.2698
" />
<path d="M12.9573 26.2698
L13.0178 26.2093
" />
<path d="M13.0178 26.2093
L13.1388 26.1489
" />
<path d="M13.1388 26.1489
L13.3807 26.1489
" />
<path d="M13.3807 26.1489
L13.5016 26.2093
" />
<path d="M14.6506 26.9955
L14.6506 26.3303
" />
<path d="M14.6506 26.3303
L14.5901 26.2093
" />
<path d="M14.5901 26.2093
L14.4692 26.1489
" />
<path d="M14.4692 26.1489
L14.2273 26.1489
" />
<path d="M14.2273 26.1489
L14.1063 26.2093
" />
<path d="M14.6506 26.9351
L14.5297 26.9955
" />
<path d="M14.5297 26.9955
L14.2273 26.9955
" />
<path d="M14.2273 26.9955
L14.1063 26.9351
" />
<path d="M14.1063 26.9351
L14.0459 26.8141
" />
<path d="M14.0459 26.8141
L14.0459 26.6931
" />
<path d="M14.0459 26.6931
L14.1063 26.5722
" />
<path d="M14.1063 26.5722
L14.2273 26.5117
" />
<path d="M14.2273 26.5117
L14.5297 26.5117
" />
<path d="M14.5297 26.5117
L14.6506 26.4512
" />
<path d="M15.2553 26.1489
L15.2553 26.9955
" />
<path d="M15.2553 26.2698
L15.3158 26.2093
" />
<path d="M15.3158 26.2093
L15.4368 26.1489
" />
<path d="M15.4368 26.1489
L15.6182 26.1489
" />
<path d="M15.6182 26.1489
L15.7391 26.2093
" />
<path d="M15.7391 26.2093
L15.7996 26.3303
" />
<path d="M15.7996 26.3303
L15.7996 26.9955
" />
<path d="M16.9486 26.1489
L16.9486 27.1770
" />
<path d="M16.9486 27.1770
L16.8881 27.2979
" />
<path d="M16.8881 27.2979
L16.8277 27.3584
" />
<path d="M16.8277 27.3584
L16.7067 27.4189
" />
<path d="M16.7067 27.4189
L16.5253 27.4189
" />
<path d="M16.5253 27.4189
L16.4043 27.3584
" />
<path d="M16.9486 26.9351
L16.8277 26.9955
" />
<path d="M16.8277 26.9955
L16.5858 26.9955
" />
<path d="M16.5858 26.9955
L16.4648 26.9351
" />
<path d="M16.4648 26.9351
L16.4043 26.8746
" />
<path d="M16.4043 26.8746
L16.3439 26.7536
" />
<path d="M16.3439 26.7536
L16.3439 26.3908
" />
<path d="M16.3439 26.3908
L16.4043 26.2698
" />
<path d="M16.4043 26.2698
L16.4648 26.2093
" />
<path d="M16.4648 26.2093
L16.5858 26.1489
" />
<path d="M16.5858 26.1489
L16.8277 26.1489
" />
<path d="M16.8277 26.1489
L16.9486 26.2093
" />
<path d="M17.4929 26.9351
L17.6138 26.9955
" />
<path d="M17.6138 26.9955
L17.8557 26.9955
" />
<path d="M17.8557 26.9955
L17.9767 26.9351
" />
<path d="M17.9767 26.9351
L18.0371 26.8141
" />
<path d="M18.0371 26.8141
L18.0371 26.7536
" />
<path d="M18.0371 26.7536
L17.9767 26.6327
" />
<path d="M17.9767 26.6327
L17.8557 26.5722
" />
<path d="M17.8557 26.5722
L17.6743 26.5722
" />
<path d="M17.6743 26.5722
L17.5533 26.5117
" />
<path d="M17.5533 26.5117
L17.4929 26.3908
" />
<path d="M17.4929 26.3908
L17.4929 26.3303
" />
<path d="M17.4929 26.3303
L17.5533 26.2093
" />
<path d="M17.5533 26.2093
L17.6743 26.1489
" />
<path d="M17.6743 26.1489
L17.8557 26.1489
" />
<path d="M17.8557 26.1489
L17.9767 26.2093
" />
<path d="M18.5814 26.5117
L19.5491 26.5117
" />
<path d="M20.0934 26.9351
L20.2748 26.9955
" />
<path d="M20.2748 26.9955
L20.5772 26.9955
" />
<path d="M20.5772 26.9955
L20.6981 26.9351
" />
<path d="M20.6981 26.9351
L20.7586 26.8746
" />
<path d="M20.7586 26.8746
L20.8191 26.7536
" />
<path d="M20.8191 26.7536
L20.8191 26.6327
" />
<path d="M20.8191 26.6327
L20.7586 26.5117
" />
<path d="M20.7586 26.5117
L20.6981 26.4512
" />
<path d="M20.6981 26.4512
L20.5772 26.3908
" />
<path d="M20.5772 26.3908
L20.3353 26.3303
" />
<path d="M20.3353 26.3303
L20.2143 26.2698
" />
<path d="M20.2143 26.2698
L20.1538 26.2093
" />
<path d="M20.1538 26.2093
L20.0934 26.0884
" />
<path d="M20.0934 26.0884
L20.0934 25.9674
" />
<path d="M20.0934 25.9674
L20.1538 25.8465
" />
<path d="M20.1538 25.8465
L20.2143 25.7860
" />
<path d="M20.2143 25.7860
L20.3353 25.7255
" />
<path d="M20.3353 25.7255
L20.6376 25.7255
" />
<path d="M20.6376 25.7255
L20.8191 25.7860
" />
<path d="M21.3633 26.9955
L21.3633 26.1489
" />
<path d="M21.3633 25.7255
L21.3029 25.7860
" />
<path d="M21.3029 25.7860
L21.3633 25.8465
" />
<path d="M21.3633 25.8465
L21.4238 25.7860
" />
<path d="M21.4238 25.7860
L21.3633 25.7255
" />
<path d="M21.3633 25.7255
L21.3633 25.8465
" />
<path d="M22.5124 26.1489
L22.5124 27.1770
" />
<path d="M22.5124 27.1770
L22.4519 27.2979
" />
<path d="M22.4519 27.2979
L22.3915 27.3584
" />
<path d="M22.3915 27.3584
L22.2705 27.4189
" />
<path d="M22.2705 27.4189
L22.0891 27.4189
" />
<path d="M22.0891 27.4189
L21.9681 27.3584
" />
<path d="M22.5124 26.9351
L22.3915 26.9955
" />
<path d="M22.3915 26.9955
L22.1496 26.9955
" />
<path d="M22.1496 26.9955
L22.0286 26.9351
" />
<path d="M22.0286 26.9351
L21.9681 26.8746
" />
<path d="M21.9681 26.8746
L21.9077 26.7536
" />
<path d="M21.9077 26.7536
L21.9077 26.3908
" />
<path d="M21.9077 26.3908
L21.9681 26.2698
" />
<path d="M21.9681 26.2698
L22.0286 26.2093
" />
<path d="M22.0286 26.2093
L22.1496 26.1489
" />
<path d="M22.1496 26.1489
L22.3915 26.1489
" />
<path d="M22.3915 26.1489
L22.5124 26.2093
" />
<path d="M23.1171 26.1489
L23.1171 26.9955
" />
<path d="M23.1171 26.2698
L23.1776 26.2093
" />
<path d="M23.1776 26.2093
L23.2986 26.1489
" />
<path d="M23.2986 26.1489
L23.4800 26.1489
" />
<path d="M23.4800 26.1489
L23.6009 26.2093
" />
<path d="M23.6009 26.2093
L23.6614 26.3303
" />
<path d="M23.6614 26.3303
L23.6614 26.9955
" />
<path d="M24.8104 26.9955
L24.8104 26.3303
" />
<path d="M24.8104 26.3303
L24.7499 26.2093
" />
<path d="M24.7499 26.2093
L24.6290 26.1489
" />
<path d="M24.6290 26.1489
L24.3871 26.1489
" />
<path d="M24.3871 26.1489
L24.2661 26.2093
" />
<path d="M24.8104 26.9351
L24.6895 26.9955
" />
<path d="M24.6895 26.9955
L24.3871 26.9955
" />
<path d="M24.3871 26.9955
L24.2661 26.9351
" />
<path d="M24.2661 26.9351
L24.2057 26.8141
" />
<path d="M24.2057 26.8141
L24.2057 26.6931
" />
<path d="M24.2057 26.6931
L24.2661 26.5722
" />
<path d="M24.2661 26.5722
L24.3871 26.5117
" />
<path d="M24.3871 26.5117
L24.6895 26.5117
" />
<path d="M24.6895 26.5117
L24.8104 26.4512
" />
<path d="M25.5966 26.9955
L25.4756 26.9351
" />
<path d="M25.4756 26.9351
L25.4151 26.8141
" />
<path d="M25.4151 26.8141
L25.4151 25.7255
" />
</g></g>
<g style="fill:none; 
stroke:#009600; stroke-width:0.1524; stroke-opacity:1; 
stroke-linecap:round; stroke-linejoin:round;">
<path d="M60.9600 26.6700
L57.1500 26.6700
" />
<path d="M60.9600 26.6700
L62.2300 26.6700
" />
<path d="M60.9600 11.4300
L60.9600 26.6700
" />
<path d="M53.3400 11.4300
L60.9600 11.4300
" />
<path d="M38.1000 11.4300
L38.1000 26.6700
" />
<path d="M38.1000 11.4300
L45.7200 11.4300
" />
<path d="M39.3700 21.5900
L39.3700 33.0200
" />
<path d="M38.1000 26.6700
L41.9100 26.6700
" />
<path d="M41.9100 21.5900
L39.3700 21.5900
" />
<path d="M36.8300 26.6700
L38.1000 26.6700
" />
</g>
<g style="fill:#009600; fill-opacity:1.0000; 
stroke:#009600; stroke-width:0.1524; stroke-opacity:1; 
stroke-linecap:round; stroke-linejoin:round;">
<circle cx="60.9600" cy="26.6700" r="0.4572" /> 
<circle cx="38.1000" cy="26.6700" r="0.4572" /> 
</g> 
</svg>
